<svg xmlns="http://www.w3.org/2000/svg" shape-rendering="geometricPrecision" text-rendering="geometricPrecision" image-rendering="optimizeQuality" fill-rule="evenodd" clip-rule="evenodd" viewBox="0 0 512 491.24"><path fill="#3E3E3E" fill-rule="nonzero" d="M240.27 119.01c2.93-25.95 13.03-49.75 28.26-69.34 18.65-23.99 45.03-41.7 75.43-49.4 2.81-.68 5.9-.08 8.31 1.89 4.04 3.32 4.62 9.28 1.3 13.32-7.38 9-13.29 19.34-17.32 30.64-3.86 10.82-5.97 22.5-5.97 34.68 0 28.47 11.54 54.25 30.19 72.9 18.66 18.65 44.43 30.2 72.9 30.2 11.74 0 23.01-1.96 33.48-5.55 10.77-3.7 20.7-9.09 29.45-15.84a9.484 9.484 0 018.78-1.98c5.04 1.41 7.98 6.65 6.57 11.69-6.93 24.72-20.54 46.66-38.76 63.72-15.95 14.95-35.45 26.17-57.1 32.27.7 6.96.71 14.01-.02 21.02-3.25 31.28-20.92 61.66-57.17 79.44-22.36 10.96-32.03 10.95-53.75 10.93h-2.94v.05h-202v-.05l-4.95.02c-14.38.09-24.66.15-40.36-6.25-21.36-8.71-37.05-24.65-46-43.43-6.84-14.37-9.73-30.48-8.2-46.35 1.54-15.98 7.58-31.67 18.57-45.07 12.24-14.92 30.52-26.88 55.4-32.93 7.52-29.27 23.35-51.87 43.63-67.6 19.1-14.82 42.12-23.44 65.81-25.73 18.91-1.83 38.29.4 56.46 6.75z"/><path fill="#E5C640" d="M414.41 258.75c42.62-12.46 76.12-46.28 88.11-89.09-19.08 14.87-43.08 23.73-69.15 23.73-62.18 0-112.59-50.41-112.59-112.59 0-27.07 9.56-51.91 25.48-71.33-52.18 13.22-91.7 58.19-96.81 113.15 1.33.58 2.65 1.19 3.95 1.82 23.57 11.31 44.14 30.06 57.61 56.4 30.71-4.48 56.65 5.99 75.21 24.28 10.81 10.66 19.03 23.98 24.12 38.51 1.72 4.91 3.08 9.98 4.07 15.12z"/><path fill="#FEDC47" d="M286.61 147.6c-.4-24.55 5.64-49.53 18.82-72.35 5.73-9.93 12.5-18.9 20.08-26.84 4.32-14.41 11.45-27.6 20.75-38.94-52.18 13.22-91.7 58.19-96.81 113.15 1.33.58 2.65 1.19 3.95 1.82 12.04 5.77 23.29 13.49 33.21 23.16z"/><path fill="#D4D1D1" d="M318.06 193.67c84.66-7.05 122.38 119.82 34.6 162.86-20.5 10.05-29.07 9.55-50.75 9.55h-202c-15.56 0-25.23.84-40.22-5.27-63.42-25.86-67.58-127.32 25.98-143.73 20.73-109.09 163.5-122.61 212.09-32.28-6.32 2.23-12.43 5.12-18.25 8.56-12.31 7.29-23.34 17.14-32.24 28.73a6.771 6.771 0 001.27 9.49 6.79 6.79 0 009.49-1.27c7.83-10.21 17.54-18.87 28.37-25.29 9.84-5.83 20.59-9.79 31.66-11.35z"/><path fill="#ECE8E8" d="M318.37 193.63c22.48-1.79 41.63 5.88 55.98 18.89 12.91 43.57-5.69 97.92-73.63 113.69H55.4c-15.92-2.02-29.3-8.21-39.8-16.99-9.03-37.69 11.11-81.8 70.07-92.14 20.72-109.1 163.5-122.61 212.1-32.28-6.33 2.23-12.44 5.12-18.26 8.56-12.31 7.29-23.34 17.14-32.24 28.73a6.771 6.771 0 001.27 9.49 6.79 6.79 0 009.49-1.27c7.83-10.21 17.54-18.87 28.37-25.29 9.94-5.88 20.79-9.87 31.97-11.39z"/><path fill="#fff" d="M263.28 179.65c.68-36.03-86.38-57.9-122.38-1.13 38.99-22.56 85.79-22.47 122.38 1.13z"/><path fill="#3E3E3E" fill-rule="nonzero" d="M261.6 287.62l73.86-.69-37.33 55.7h38.66L214.71 491.24l44.62-112.35-29.09-.28 26.13-90.94z"/><path fill="#FFCD52" d="M322.31 294.03l-60.65.56-22.16 77.14 30.06.29-31.88 80.29 84.34-102.68h-36.98z"/><path fill="#F7C043" d="M278.91 294.81l-16.85.31-21.24 76.19 28.92.65-32.06 80.35 43.03-87.96-25.65-4.38z"/><path fill="#A5A2A2" d="M96.13 313c5.15 25.47 25.45 44 25.45 59.02 0 38.26-50.86 38.27-50.86 0 0-15.1 20.3-33.43 25.41-59.02zm74.17 28.62c5.22 25.85 25.82 44.66 25.82 59.91 0 38.82-51.62 38.82-51.62 0 0-15.34 20.61-33.94 25.8-59.91zm-14.05-78.33c4.34 21.49 21.47 37.12 21.47 49.8 0 32.27-42.92 32.28-42.92 0 0-12.75 17.13-28.21 21.45-49.8z"/><path fill="#fff" d="M154.58 397.17c-.13-1.66.94-3.14 2.37-3.29 1.44-.15 2.72 1.08 2.85 2.74.32 4.03 1.08 7.73 2.54 10.93 1.41 3.09 3.49 5.74 6.51 7.79 1.25.84 1.67 2.7.94 4.14-.73 1.44-2.34 1.92-3.58 1.07-3.94-2.66-6.67-6.13-8.51-10.18-1.8-3.95-2.73-8.42-3.12-13.2zm-11.4-87.7c-.1-1.39.78-2.61 1.97-2.74 1.2-.12 2.26.9 2.37 2.28.27 3.35.9 6.43 2.11 9.09 1.17 2.56 2.91 4.77 5.42 6.47 1.03.7 1.38 2.24.77 3.44-.6 1.2-1.94 1.6-2.97.9-3.28-2.22-5.54-5.1-7.07-8.47-1.5-3.28-2.27-6.99-2.6-10.97zm-62.53 58.26c-.13-1.64.92-3.09 2.34-3.24 1.41-.14 2.67 1.06 2.8 2.7.32 3.97 1.07 7.62 2.5 10.77 1.39 3.04 3.45 5.66 6.42 7.68 1.23.83 1.64 2.65.92 4.07-.72 1.42-2.3 1.9-3.52 1.07-3.88-2.63-6.57-6.05-8.39-10.04-1.77-3.89-2.69-8.29-3.07-13.01z"/></svg>